<svg width="32" height="32" viewBox="0 0 32 32" fill="none" xmlns="http://www.w3.org/2000/svg">
<path d="M5.71293 19.4447C5.22352 19.4447 4.75293 19.3663 4.30116 19.2094C3.85567 19.0463 3.51058 18.8392 3.26587 18.5882L3.53881 18.0518C3.77097 18.2776 4.08156 18.469 4.47058 18.6259C4.86587 18.7765 5.27999 18.8518 5.71293 18.8518C6.12705 18.8518 6.46273 18.8016 6.71999 18.7012C6.98352 18.5945 7.17489 18.4533 7.29411 18.2776C7.4196 18.102 7.48234 17.9075 7.48234 17.6941C7.48234 17.4369 7.40705 17.2298 7.25646 17.0729C7.11214 16.9161 6.92077 16.7937 6.68234 16.7059C6.44391 16.6118 6.18038 16.5302 5.89175 16.4612C5.60312 16.3922 5.3145 16.32 5.02587 16.2447C4.73724 16.1631 4.47058 16.0565 4.22587 15.9247C3.98744 15.7929 3.79293 15.6204 3.64234 15.4071C3.49803 15.1875 3.42587 14.902 3.42587 14.5506C3.42587 14.2243 3.51058 13.9263 3.67999 13.6565C3.85567 13.3804 4.12234 13.1608 4.47999 12.9976C4.83763 12.8282 5.29567 12.7435 5.8541 12.7435C6.2243 12.7435 6.59136 12.7969 6.95528 12.9035C7.3192 13.0039 7.63293 13.1451 7.89646 13.3271L7.66116 13.8824C7.37881 13.6941 7.07763 13.5561 6.75763 13.4682C6.44391 13.3804 6.1396 13.3365 5.84469 13.3365C5.4494 13.3365 5.12312 13.3898 4.86587 13.4965C4.60861 13.6031 4.41724 13.7475 4.29175 13.9294C4.17254 14.1051 4.11293 14.3059 4.11293 14.5318C4.11293 14.789 4.18509 14.9961 4.3294 15.1529C4.47999 15.3098 4.6745 15.4322 4.91293 15.52C5.15763 15.6078 5.4243 15.6863 5.71293 15.7553C6.00156 15.8243 6.28705 15.8996 6.5694 15.9812C6.85803 16.0627 7.12156 16.1694 7.35999 16.3012C7.60469 16.4267 7.7992 16.5961 7.94352 16.8094C8.09411 17.0227 8.1694 17.302 8.1694 17.6471C8.1694 17.9671 8.08156 18.2651 7.90587 18.5412C7.73018 18.811 7.46038 19.0306 7.09646 19.2C6.73881 19.3631 6.27763 19.4447 5.71293 19.4447Z" fill="white"/>
<path d="M11.5598 19.4353C11.083 19.4353 10.6532 19.3286 10.2704 19.1153C9.89396 18.8957 9.59592 18.5976 9.37631 18.2212C9.1567 17.8384 9.0469 17.4024 9.0469 16.9129C9.0469 16.4173 9.1567 15.9812 9.37631 15.6047C9.59592 15.2282 9.89396 14.9333 10.2704 14.72C10.6469 14.5067 11.0767 14.4 11.5598 14.4C12.0493 14.4 12.4822 14.5067 12.8587 14.72C13.2414 14.9333 13.5394 15.2282 13.7528 15.6047C13.9724 15.9812 14.0822 16.4173 14.0822 16.9129C14.0822 17.4024 13.9724 17.8384 13.7528 18.2212C13.5394 18.5976 13.2414 18.8957 12.8587 19.1153C12.4759 19.3286 12.043 19.4353 11.5598 19.4353ZM11.5598 18.8424C11.9175 18.8424 12.2344 18.7639 12.5104 18.6071C12.7865 18.4439 13.003 18.218 13.1598 17.9294C13.323 17.6345 13.4045 17.2957 13.4045 16.9129C13.4045 16.5239 13.323 16.1851 13.1598 15.8965C13.003 15.6078 12.7865 15.3851 12.5104 15.2282C12.2344 15.0651 11.9206 14.9835 11.5693 14.9835C11.2179 14.9835 10.9042 15.0651 10.6281 15.2282C10.352 15.3851 10.1324 15.6078 9.96925 15.8965C9.80611 16.1851 9.72455 16.5239 9.72455 16.9129C9.72455 17.2957 9.80611 17.6345 9.96925 17.9294C10.1324 18.218 10.352 18.4439 10.6281 18.6071C10.9042 18.7639 11.2147 18.8424 11.5598 18.8424Z" fill="white"/>
<path d="M15.5876 19.3882V12.8H16.1618L19.1735 17.9388H18.8723L21.8559 12.8H22.43V19.3882H21.7618V13.8447H21.9218L19.1735 18.5506H18.8441L16.077 13.8447H16.2559V19.3882H15.5876Z" fill="white"/>
<path d="M26.5343 19.4353C26.0197 19.4353 25.568 19.3286 25.179 19.1153C24.7899 18.8957 24.4856 18.5976 24.266 18.2212C24.0464 17.8384 23.9366 17.4024 23.9366 16.9129C23.9366 16.4235 24.0401 15.9906 24.2472 15.6141C24.4605 15.2376 24.7492 14.9427 25.1131 14.7294C25.4833 14.5098 25.8974 14.4 26.3554 14.4C26.8197 14.4 27.2307 14.5067 27.5884 14.72C27.9523 14.9271 28.2378 15.222 28.4448 15.6047C28.6519 15.9812 28.7554 16.4173 28.7554 16.9129C28.7554 16.9443 28.7523 16.9788 28.746 17.0165C28.746 17.0478 28.746 17.0824 28.746 17.12H24.4448V16.6212H28.3884L28.1248 16.8188C28.1248 16.4612 28.0464 16.1443 27.8895 15.8682C27.739 15.5859 27.5319 15.3663 27.2684 15.2094C27.0048 15.0525 26.7005 14.9741 26.3554 14.9741C26.0166 14.9741 25.7123 15.0525 25.4425 15.2094C25.1727 15.3663 24.9625 15.5859 24.8119 15.8682C24.6613 16.1506 24.586 16.4737 24.586 16.8376V16.9412C24.586 17.3176 24.6676 17.6502 24.8307 17.9388C25.0001 18.2212 25.2323 18.4439 25.5272 18.6071C25.8284 18.7639 26.1703 18.8424 26.5531 18.8424C26.8543 18.8424 27.1335 18.789 27.3907 18.6824C27.6543 18.5757 27.8801 18.4125 28.0684 18.1929L28.4448 18.6259C28.2252 18.8894 27.9492 19.0902 27.6166 19.2282C27.2903 19.3663 26.9295 19.4353 26.5343 19.4353Z" fill="white"/>
<path d="M31.6 16C31.6 24.6156 24.6156 31.6 16 31.6C7.38436 31.6 0.4 24.6156 0.4 16C0.4 7.38436 7.38436 0.4 16 0.4C24.6156 0.4 31.6 7.38436 31.6 16Z" stroke="white" stroke-width="0.8"/>
</svg>
